<svg width="1363" height="163" viewBox="0 0 1363 163" fill="none" xmlns="http://www.w3.org/2000/svg">
<path d="M0 15C0 6.71573 6.71573 0 15 0H37V163H15C6.71573 163 0 156.284 0 148V15Z" fill="#424242"/>
<rect width="1097" height="163" transform="translate(37)" fill="#F0F0F0"/>
<path d="M101.906 53.9219L94.3945 51.2383V48.0859L104.602 52.375V54.6367L101.906 53.9219ZM94.3945 56.1719L101.918 53.4297L104.602 52.7852V55.0352L94.3945 59.3242V56.1719ZM114.504 43.9375H117.48L121.863 56.4648L126.246 43.9375H129.223L123.059 61H120.668L114.504 43.9375ZM112.898 43.9375H115.863L116.402 56.1484V61H112.898V43.9375ZM127.863 43.9375H130.84V61H127.324V56.1484L127.863 43.9375ZM133.172 54.7891V54.543C133.172 53.6133 133.305 52.7578 133.57 51.9766C133.836 51.1875 134.223 50.5039 134.73 49.9258C135.238 49.3477 135.863 48.8984 136.605 48.5781C137.348 48.25 138.199 48.0859 139.16 48.0859C140.121 48.0859 140.977 48.25 141.727 48.5781C142.477 48.8984 143.105 49.3477 143.613 49.9258C144.129 50.5039 144.52 51.1875 144.785 51.9766C145.051 52.7578 145.184 53.6133 145.184 54.543V54.7891C145.184 55.7109 145.051 56.5664 144.785 57.3555C144.52 58.1367 144.129 58.8203 143.613 59.4062C143.105 59.9844 142.48 60.4336 141.738 60.7539C140.996 61.0742 140.145 61.2344 139.184 61.2344C138.223 61.2344 137.367 61.0742 136.617 60.7539C135.875 60.4336 135.246 59.9844 134.73 59.4062C134.223 58.8203 133.836 58.1367 133.57 57.3555C133.305 56.5664 133.172 55.7109 133.172 54.7891ZM136.547 54.543V54.7891C136.547 55.3203 136.594 55.8164 136.688 56.2773C136.781 56.7383 136.93 57.1445 137.133 57.4961C137.344 57.8398 137.617 58.1094 137.953 58.3047C138.289 58.5 138.699 58.5977 139.184 58.5977C139.652 58.5977 140.055 58.5 140.391 58.3047C140.727 58.1094 140.996 57.8398 141.199 57.4961C141.402 57.1445 141.551 56.7383 141.645 56.2773C141.746 55.8164 141.797 55.3203 141.797 54.7891V54.543C141.797 54.0273 141.746 53.543 141.645 53.0898C141.551 52.6289 141.398 52.2227 141.188 51.8711C140.984 51.5117 140.715 51.2305 140.379 51.0273C140.043 50.8242 139.637 50.7227 139.16 50.7227C138.684 50.7227 138.277 50.8242 137.941 51.0273C137.613 51.2305 137.344 51.5117 137.133 51.8711C136.93 52.2227 136.781 52.6289 136.688 53.0898C136.594 53.543 136.547 54.0273 136.547 54.543ZM146.719 54.7891V54.543C146.719 53.6133 146.852 52.7578 147.117 51.9766C147.383 51.1875 147.77 50.5039 148.277 49.9258C148.785 49.3477 149.41 48.8984 150.152 48.5781C150.895 48.25 151.746 48.0859 152.707 48.0859C153.668 48.0859 154.523 48.25 155.273 48.5781C156.023 48.8984 156.652 49.3477 157.16 49.9258C157.676 50.5039 158.066 51.1875 158.332 51.9766C158.598 52.7578 158.73 53.6133 158.73 54.543V54.7891C158.73 55.7109 158.598 56.5664 158.332 57.3555C158.066 58.1367 157.676 58.8203 157.16 59.4062C156.652 59.9844 156.027 60.4336 155.285 60.7539C154.543 61.0742 153.691 61.2344 152.73 61.2344C151.77 61.2344 150.914 61.0742 150.164 60.7539C149.422 60.4336 148.793 59.9844 148.277 59.4062C147.77 58.8203 147.383 58.1367 147.117 57.3555C146.852 56.5664 146.719 55.7109 146.719 54.7891ZM150.094 54.543V54.7891C150.094 55.3203 150.141 55.8164 150.234 56.2773C150.328 56.7383 150.477 57.1445 150.68 57.4961C150.891 57.8398 151.164 58.1094 151.5 58.3047C151.836 58.5 152.246 58.5977 152.73 58.5977C153.199 58.5977 153.602 58.5 153.938 58.3047C154.273 58.1094 154.543 57.8398 154.746 57.4961C154.949 57.1445 155.098 56.7383 155.191 56.2773C155.293 55.8164 155.344 55.3203 155.344 54.7891V54.543C155.344 54.0273 155.293 53.543 155.191 53.0898C155.098 52.6289 154.945 52.2227 154.734 51.8711C154.531 51.5117 154.262 51.2305 153.926 51.0273C153.59 50.8242 153.184 50.7227 152.707 50.7227C152.23 50.7227 151.824 50.8242 151.488 51.0273C151.16 51.2305 150.891 51.5117 150.68 51.8711C150.477 52.2227 150.328 52.6289 150.234 53.0898C150.141 53.543 150.094 54.0273 150.094 54.543ZM168.293 58.2344V43H171.691V61H168.633L168.293 58.2344ZM160.277 54.8125V54.5664C160.277 53.5977 160.387 52.7188 160.605 51.9297C160.824 51.1328 161.145 50.4492 161.566 49.8789C161.988 49.3086 162.508 48.8672 163.125 48.5547C163.742 48.2422 164.445 48.0859 165.234 48.0859C165.977 48.0859 166.625 48.2422 167.18 48.5547C167.742 48.8672 168.219 49.3125 168.609 49.8906C169.008 50.4609 169.328 51.1367 169.57 51.918C169.812 52.6914 169.988 53.5391 170.098 54.4609V55C169.988 55.8828 169.812 56.7031 169.57 57.4609C169.328 58.2188 169.008 58.8828 168.609 59.4531C168.219 60.0156 167.742 60.4531 167.18 60.7656C166.617 61.0781 165.961 61.2344 165.211 61.2344C164.422 61.2344 163.719 61.0742 163.102 60.7539C162.492 60.4336 161.977 59.9844 161.555 59.4062C161.141 58.8281 160.824 58.1484 160.605 57.3672C160.387 56.5859 160.277 55.7344 160.277 54.8125ZM163.652 54.5664V54.8125C163.652 55.3359 163.691 55.8242 163.77 56.2773C163.855 56.7305 163.992 57.1328 164.18 57.4844C164.375 57.8281 164.625 58.0977 164.93 58.293C165.242 58.4805 165.621 58.5742 166.066 58.5742C166.645 58.5742 167.121 58.4453 167.496 58.1875C167.871 57.9219 168.156 57.5586 168.352 57.0977C168.555 56.6367 168.672 56.1055 168.703 55.5039V53.9688C168.68 53.4766 168.609 53.0352 168.492 52.6445C168.383 52.2461 168.219 51.9062 168 51.625C167.789 51.3438 167.523 51.125 167.203 50.9688C166.891 50.8125 166.52 50.7344 166.09 50.7344C165.652 50.7344 165.277 50.8359 164.965 51.0391C164.652 51.2344 164.398 51.5039 164.203 51.8477C164.016 52.1914 163.875 52.5977 163.781 53.0664C163.695 53.5273 163.652 54.0273 163.652 54.5664ZM177.891 48.3203V61H174.504V48.3203H177.891ZM174.293 45.0156C174.293 44.5234 174.465 44.1172 174.809 43.7969C175.152 43.4766 175.613 43.3164 176.191 43.3164C176.762 43.3164 177.219 43.4766 177.562 43.7969C177.914 44.1172 178.09 44.5234 178.09 45.0156C178.09 45.5078 177.914 45.9141 177.562 46.2344C177.219 46.5547 176.762 46.7148 176.191 46.7148C175.613 46.7148 175.152 46.5547 174.809 46.2344C174.465 45.9141 174.293 45.5078 174.293 45.0156ZM184.98 61H181.582V47.1953C181.582 46.2344 181.77 45.4258 182.145 44.7695C182.527 44.1055 183.062 43.6055 183.75 43.2695C184.445 42.9258 185.27 42.7539 186.223 42.7539C186.535 42.7539 186.836 42.7773 187.125 42.8242C187.414 42.8633 187.695 42.9141 187.969 42.9766L187.934 45.5195C187.785 45.4805 187.629 45.4531 187.465 45.4375C187.301 45.4219 187.109 45.4141 186.891 45.4141C186.484 45.4141 186.137 45.4844 185.848 45.625C185.566 45.7578 185.352 45.957 185.203 46.2227C185.055 46.4883 184.98 46.8125 184.98 47.1953V61ZM187.512 48.3203V50.7109H179.695V48.3203H187.512ZM193.043 59.5703L196.406 48.3203H200.027L194.93 62.9102C194.82 63.2305 194.672 63.5742 194.484 63.9414C194.305 64.3086 194.059 64.6562 193.746 64.9844C193.441 65.3203 193.055 65.5938 192.586 65.8047C192.125 66.0156 191.559 66.1211 190.887 66.1211C190.566 66.1211 190.305 66.1016 190.102 66.0625C189.898 66.0234 189.656 65.9688 189.375 65.8984V63.4258C189.461 63.4258 189.551 63.4258 189.645 63.4258C189.738 63.4336 189.828 63.4375 189.914 63.4375C190.359 63.4375 190.723 63.3867 191.004 63.2852C191.285 63.1836 191.512 63.0273 191.684 62.8164C191.855 62.6133 191.992 62.3477 192.094 62.0195L193.043 59.5703ZM191.637 48.3203L194.391 57.5078L194.871 61.082L192.574 61.3281L188.016 48.3203H191.637Z" fill="#888888"/>
<path d="M118.594 98.4219V104.75H101.086V98.4219H118.594ZM103.828 84.875V119H95.6016V84.875H103.828ZM124.125 84.875V119H115.922V84.875H124.125ZM127.992 106.578V106.086C127.992 104.227 128.258 102.516 128.789 100.953C129.32 99.375 130.102 98.0078 131.133 96.8516C132.164 95.6953 133.438 94.7969 134.953 94.1562C136.469 93.5 138.219 93.1719 140.203 93.1719C142.203 93.1719 143.961 93.5 145.477 94.1562C147.008 94.7969 148.289 95.6953 149.32 96.8516C150.352 98.0078 151.133 99.375 151.664 100.953C152.195 102.516 152.461 104.227 152.461 106.086V106.578C152.461 108.422 152.195 110.133 151.664 111.711C151.133 113.273 150.352 114.641 149.32 115.812C148.289 116.969 147.016 117.867 145.5 118.508C143.984 119.148 142.234 119.469 140.25 119.469C138.266 119.469 136.508 119.148 134.977 118.508C133.445 117.867 132.164 116.969 131.133 115.812C130.102 114.641 129.32 113.273 128.789 111.711C128.258 110.133 127.992 108.422 127.992 106.578ZM135.891 106.086V106.578C135.891 107.531 135.961 108.422 136.102 109.25C136.242 110.078 136.477 110.805 136.805 111.43C137.133 112.039 137.578 112.516 138.141 112.859C138.703 113.203 139.406 113.375 140.25 113.375C141.078 113.375 141.766 113.203 142.312 112.859C142.875 112.516 143.32 112.039 143.648 111.43C143.977 110.805 144.211 110.078 144.352 109.25C144.492 108.422 144.562 107.531 144.562 106.578V106.086C144.562 105.164 144.492 104.297 144.352 103.484C144.211 102.656 143.977 101.93 143.648 101.305C143.32 100.664 142.875 100.164 142.312 99.8047C141.75 99.4453 141.047 99.2656 140.203 99.2656C139.375 99.2656 138.68 99.4453 138.117 99.8047C137.57 100.164 137.133 100.664 136.805 101.305C136.477 101.93 136.242 102.656 136.102 103.484C135.961 104.297 135.891 105.164 135.891 106.086ZM163.688 111.453L168.375 93.6406H173.32L171.562 102.57L166.922 119H162.961L163.688 111.453ZM161.836 93.6406L164.742 111.312L165.07 119H160.266L154.266 93.6406H161.836ZM177.492 110.938L180.422 93.6406H187.992L182.039 119H177.234L177.492 110.938ZM173.883 93.6406L178.617 111.406L179.344 119H175.336L170.789 102.617L169.102 93.6406H173.883ZM218.297 84.875V119H210.07V84.875H218.297ZM228.562 84.875V91.2266H200.039V84.875H228.562ZM225.773 106.578V106.086C225.773 104.227 226.039 102.516 226.57 100.953C227.102 99.375 227.883 98.0078 228.914 96.8516C229.945 95.6953 231.219 94.7969 232.734 94.1562C234.25 93.5 236 93.1719 237.984 93.1719C239.984 93.1719 241.742 93.5 243.258 94.1562C244.789 94.7969 246.07 95.6953 247.102 96.8516C248.133 98.0078 248.914 99.375 249.445 100.953C249.977 102.516 250.242 104.227 250.242 106.086V106.578C250.242 108.422 249.977 110.133 249.445 111.711C248.914 113.273 248.133 114.641 247.102 115.812C246.07 116.969 244.797 117.867 243.281 118.508C241.766 119.148 240.016 119.469 238.031 119.469C236.047 119.469 234.289 119.148 232.758 118.508C231.227 117.867 229.945 116.969 228.914 115.812C227.883 114.641 227.102 113.273 226.57 111.711C226.039 110.133 225.773 108.422 225.773 106.578ZM233.672 106.086V106.578C233.672 107.531 233.742 108.422 233.883 109.25C234.023 110.078 234.258 110.805 234.586 111.43C234.914 112.039 235.359 112.516 235.922 112.859C236.484 113.203 237.188 113.375 238.031 113.375C238.859 113.375 239.547 113.203 240.094 112.859C240.656 112.516 241.102 112.039 241.43 111.43C241.758 110.805 241.992 110.078 242.133 109.25C242.273 108.422 242.344 107.531 242.344 106.578V106.086C242.344 105.164 242.273 104.297 242.133 103.484C241.992 102.656 241.758 101.93 241.43 101.305C241.102 100.664 240.656 100.164 240.094 99.8047C239.531 99.4453 238.828 99.2656 237.984 99.2656C237.156 99.2656 236.461 99.4453 235.898 99.8047C235.352 100.164 234.914 100.664 234.586 101.305C234.258 101.93 234.023 102.656 233.883 103.484C233.742 104.297 233.672 105.164 233.672 106.086ZM266.086 84.875H279.516C282.141 84.875 284.422 85.2656 286.359 86.0469C288.297 86.8281 289.789 87.9844 290.836 89.5156C291.898 91.0469 292.43 92.9375 292.43 95.1875C292.43 97.1406 292.125 98.7734 291.516 100.086C290.906 101.398 290.055 102.484 288.961 103.344C287.883 104.188 286.625 104.883 285.188 105.43L282.492 106.953H271.219L271.172 100.602H279.516C280.562 100.602 281.43 100.414 282.117 100.039C282.805 99.6641 283.32 99.1328 283.664 98.4453C284.023 97.7422 284.203 96.9062 284.203 95.9375C284.203 94.9531 284.023 94.1094 283.664 93.4062C283.305 92.7031 282.773 92.1641 282.07 91.7891C281.383 91.4141 280.531 91.2266 279.516 91.2266H274.312V119H266.086V84.875ZM284.766 119L277.219 103.906L285.938 103.859L293.578 118.648V119H284.766ZM311.836 112.836V93.6406H319.758V119H312.352L311.836 112.836ZM312.586 107.68L314.648 107.633C314.648 109.336 314.445 110.914 314.039 112.367C313.633 113.805 313.031 115.055 312.234 116.117C311.453 117.18 310.484 118.008 309.328 118.602C308.188 119.18 306.867 119.469 305.367 119.469C304.117 119.469 302.969 119.297 301.922 118.953C300.891 118.594 300 118.039 299.25 117.289C298.5 116.523 297.914 115.547 297.492 114.359C297.086 113.156 296.883 111.719 296.883 110.047V93.6406H304.781V110.094C304.781 110.656 304.852 111.141 304.992 111.547C305.133 111.953 305.336 112.297 305.602 112.578C305.867 112.844 306.195 113.047 306.586 113.188C306.992 113.312 307.453 113.375 307.969 113.375C309.156 113.375 310.086 113.125 310.758 112.625C311.43 112.125 311.898 111.445 312.164 110.586C312.445 109.727 312.586 108.758 312.586 107.68ZM331.875 99.0547V119H323.977V93.6406H331.383L331.875 99.0547ZM330.938 105.453L329.086 105.5C329.086 103.562 329.32 101.836 329.789 100.32C330.258 98.7891 330.922 97.4922 331.781 96.4297C332.641 95.3672 333.664 94.5625 334.852 94.0156C336.055 93.4531 337.391 93.1719 338.859 93.1719C340.031 93.1719 341.102 93.3438 342.07 93.6875C343.055 94.0312 343.898 94.5859 344.602 95.3516C345.32 96.1172 345.867 97.1328 346.242 98.3984C346.633 99.6484 346.828 101.195 346.828 103.039V119H338.883V103.016C338.883 102 338.742 101.227 338.461 100.695C338.18 100.148 337.773 99.7734 337.242 99.5703C336.711 99.3672 336.062 99.2656 335.297 99.2656C334.484 99.2656 333.797 99.4219 333.234 99.7344C332.672 100.047 332.219 100.484 331.875 101.047C331.547 101.594 331.305 102.242 331.148 102.992C331.008 103.742 330.938 104.562 330.938 105.453ZM363.773 108.195H357.047C357.047 106.82 357.141 105.609 357.328 104.562C357.531 103.5 357.875 102.547 358.359 101.703C358.844 100.859 359.5 100.078 360.328 99.3594C361.062 98.75 361.695 98.1641 362.227 97.6016C362.758 97.0391 363.164 96.4688 363.445 95.8906C363.727 95.3125 363.867 94.6953 363.867 94.0391C363.867 93.2266 363.75 92.5625 363.516 92.0469C363.297 91.5312 362.961 91.1484 362.508 90.8984C362.07 90.6328 361.516 90.5 360.844 90.5C360.297 90.5 359.781 90.6328 359.297 90.8984C358.828 91.1641 358.445 91.5781 358.148 92.1406C357.852 92.6875 357.688 93.4141 357.656 94.3203H349.711C349.758 91.9922 350.273 90.1016 351.258 88.6484C352.258 87.1797 353.586 86.1094 355.242 85.4375C356.914 84.75 358.781 84.4062 360.844 84.4062C363.125 84.4062 365.086 84.7578 366.727 85.4609C368.367 86.1641 369.625 87.2109 370.5 88.6016C371.375 89.9766 371.812 91.6719 371.812 93.6875C371.812 95.0312 371.555 96.2031 371.039 97.2031C370.539 98.1875 369.859 99.1094 369 99.9688C368.156 100.812 367.211 101.719 366.164 102.688C365.258 103.484 364.641 104.297 364.312 105.125C363.984 105.938 363.805 106.961 363.773 108.195ZM356.086 115.32C356.086 114.195 356.492 113.258 357.305 112.508C358.117 111.742 359.172 111.359 360.469 111.359C361.766 111.359 362.82 111.742 363.633 112.508C364.445 113.258 364.852 114.195 364.852 115.32C364.852 116.445 364.445 117.391 363.633 118.156C362.82 118.906 361.766 119.281 360.469 119.281C359.172 119.281 358.117 118.906 357.305 118.156C356.492 117.391 356.086 116.445 356.086 115.32Z" fill="black"/>
<path d="M1134 0H1348C1356.28 0 1363 6.71573 1363 15V148C1363 156.284 1356.28 163 1348 163H1134V0Z" fill="#FF5A08"/>
<path d="M1260.62 78.8847C1263.81 78.8847 1266.93 79.805 1269.59 81.5293C1272.25 83.2536 1274.32 85.7044 1275.54 88.5718C1276.76 91.4391 1277.08 94.5943 1276.46 97.6383C1275.84 100.682 1274.3 103.478 1272.04 105.673C1269.78 107.868 1266.9 109.362 1263.77 109.968C1260.63 110.573 1257.39 110.262 1254.43 109.075C1251.48 107.887 1248.96 105.876 1247.18 103.295C1245.41 100.714 1244.46 97.6806 1244.46 94.5769C1244.46 90.4151 1246.16 86.4237 1249.19 83.4808C1252.22 80.538 1256.33 78.8847 1260.62 78.8847ZM1260.62 73.6539C1256.36 73.6539 1252.19 74.881 1248.65 77.1801C1245.11 79.4791 1242.35 82.7469 1240.72 86.57C1239.09 90.3932 1238.66 94.6001 1239.49 98.6588C1240.32 102.717 1242.37 106.446 1245.39 109.372C1248.4 112.298 1252.24 114.291 1256.41 115.098C1260.59 115.905 1264.92 115.491 1268.86 113.907C1272.79 112.324 1276.16 109.642 1278.52 106.201C1280.89 102.76 1282.15 98.7151 1282.15 94.5769C1282.15 89.0278 1279.88 83.706 1275.85 79.7821C1271.81 75.8583 1266.33 73.6539 1260.62 73.6539Z" fill="white"/>
<path d="M1274.08 47.5H1220.23C1218.8 47.5 1217.43 48.0511 1216.42 49.0321C1215.41 50.013 1214.85 51.3435 1214.85 52.7307V105.038C1214.85 106.426 1215.41 107.756 1216.42 108.737C1217.43 109.718 1218.8 110.269 1220.23 110.269H1231V105.038H1220.23V68.423H1279.46V52.7307C1279.46 51.3435 1278.89 50.013 1277.88 49.0321C1276.87 48.0511 1275.5 47.5 1274.08 47.5ZM1220.23 63.1922V52.7307H1274.08V63.1922H1220.23Z" fill="white"/>
<path d="M1255.23 86.731V102.423L1268.69 94.5771L1255.23 86.731Z" fill="white"/>
</svg>
