<svg width="1363" height="163" viewBox="0 0 1363 163" fill="none" xmlns="http://www.w3.org/2000/svg">
<path d="M0 15C0 6.71573 6.71573 0 15 0H37V163H15C6.71573 163 0 156.284 0 148V15Z" fill="#424242"/>
<rect width="1097" height="163" transform="translate(37)" fill="#F0F0F0"/>
<path d="M101.906 53.9219L94.3945 51.2383V48.0859L104.602 52.375V54.6367L101.906 53.9219ZM94.3945 56.1719L101.918 53.4297L104.602 52.7852V55.0352L94.3945 59.3242V56.1719ZM114.504 43.9375H117.48L121.863 56.4648L126.246 43.9375H129.223L123.059 61H120.668L114.504 43.9375ZM112.898 43.9375H115.863L116.402 56.1484V61H112.898V43.9375ZM127.863 43.9375H130.84V61H127.324V56.1484L127.863 43.9375ZM133.172 54.7891V54.543C133.172 53.6133 133.305 52.7578 133.57 51.9766C133.836 51.1875 134.223 50.5039 134.73 49.9258C135.238 49.3477 135.863 48.8984 136.605 48.5781C137.348 48.25 138.199 48.0859 139.16 48.0859C140.121 48.0859 140.977 48.25 141.727 48.5781C142.477 48.8984 143.105 49.3477 143.613 49.9258C144.129 50.5039 144.52 51.1875 144.785 51.9766C145.051 52.7578 145.184 53.6133 145.184 54.543V54.7891C145.184 55.7109 145.051 56.5664 144.785 57.3555C144.52 58.1367 144.129 58.8203 143.613 59.4062C143.105 59.9844 142.48 60.4336 141.738 60.7539C140.996 61.0742 140.145 61.2344 139.184 61.2344C138.223 61.2344 137.367 61.0742 136.617 60.7539C135.875 60.4336 135.246 59.9844 134.73 59.4062C134.223 58.8203 133.836 58.1367 133.57 57.3555C133.305 56.5664 133.172 55.7109 133.172 54.7891ZM136.547 54.543V54.7891C136.547 55.3203 136.594 55.8164 136.688 56.2773C136.781 56.7383 136.93 57.1445 137.133 57.4961C137.344 57.8398 137.617 58.1094 137.953 58.3047C138.289 58.5 138.699 58.5977 139.184 58.5977C139.652 58.5977 140.055 58.5 140.391 58.3047C140.727 58.1094 140.996 57.8398 141.199 57.4961C141.402 57.1445 141.551 56.7383 141.645 56.2773C141.746 55.8164 141.797 55.3203 141.797 54.7891V54.543C141.797 54.0273 141.746 53.543 141.645 53.0898C141.551 52.6289 141.398 52.2227 141.188 51.8711C140.984 51.5117 140.715 51.2305 140.379 51.0273C140.043 50.8242 139.637 50.7227 139.16 50.7227C138.684 50.7227 138.277 50.8242 137.941 51.0273C137.613 51.2305 137.344 51.5117 137.133 51.8711C136.93 52.2227 136.781 52.6289 136.688 53.0898C136.594 53.543 136.547 54.0273 136.547 54.543ZM146.719 54.7891V54.543C146.719 53.6133 146.852 52.7578 147.117 51.9766C147.383 51.1875 147.77 50.5039 148.277 49.9258C148.785 49.3477 149.41 48.8984 150.152 48.5781C150.895 48.25 151.746 48.0859 152.707 48.0859C153.668 48.0859 154.523 48.25 155.273 48.5781C156.023 48.8984 156.652 49.3477 157.16 49.9258C157.676 50.5039 158.066 51.1875 158.332 51.9766C158.598 52.7578 158.73 53.6133 158.73 54.543V54.7891C158.73 55.7109 158.598 56.5664 158.332 57.3555C158.066 58.1367 157.676 58.8203 157.16 59.4062C156.652 59.9844 156.027 60.4336 155.285 60.7539C154.543 61.0742 153.691 61.2344 152.73 61.2344C151.77 61.2344 150.914 61.0742 150.164 60.7539C149.422 60.4336 148.793 59.9844 148.277 59.4062C147.77 58.8203 147.383 58.1367 147.117 57.3555C146.852 56.5664 146.719 55.7109 146.719 54.7891ZM150.094 54.543V54.7891C150.094 55.3203 150.141 55.8164 150.234 56.2773C150.328 56.7383 150.477 57.1445 150.68 57.4961C150.891 57.8398 151.164 58.1094 151.5 58.3047C151.836 58.5 152.246 58.5977 152.73 58.5977C153.199 58.5977 153.602 58.5 153.938 58.3047C154.273 58.1094 154.543 57.8398 154.746 57.4961C154.949 57.1445 155.098 56.7383 155.191 56.2773C155.293 55.8164 155.344 55.3203 155.344 54.7891V54.543C155.344 54.0273 155.293 53.543 155.191 53.0898C155.098 52.6289 154.945 52.2227 154.734 51.8711C154.531 51.5117 154.262 51.2305 153.926 51.0273C153.59 50.8242 153.184 50.7227 152.707 50.7227C152.23 50.7227 151.824 50.8242 151.488 51.0273C151.16 51.2305 150.891 51.5117 150.68 51.8711C150.477 52.2227 150.328 52.6289 150.234 53.0898C150.141 53.543 150.094 54.0273 150.094 54.543ZM168.293 58.2344V43H171.691V61H168.633L168.293 58.2344ZM160.277 54.8125V54.5664C160.277 53.5977 160.387 52.7188 160.605 51.9297C160.824 51.1328 161.145 50.4492 161.566 49.8789C161.988 49.3086 162.508 48.8672 163.125 48.5547C163.742 48.2422 164.445 48.0859 165.234 48.0859C165.977 48.0859 166.625 48.2422 167.18 48.5547C167.742 48.8672 168.219 49.3125 168.609 49.8906C169.008 50.4609 169.328 51.1367 169.57 51.918C169.812 52.6914 169.988 53.5391 170.098 54.4609V55C169.988 55.8828 169.812 56.7031 169.57 57.4609C169.328 58.2188 169.008 58.8828 168.609 59.4531C168.219 60.0156 167.742 60.4531 167.18 60.7656C166.617 61.0781 165.961 61.2344 165.211 61.2344C164.422 61.2344 163.719 61.0742 163.102 60.7539C162.492 60.4336 161.977 59.9844 161.555 59.4062C161.141 58.8281 160.824 58.1484 160.605 57.3672C160.387 56.5859 160.277 55.7344 160.277 54.8125ZM163.652 54.5664V54.8125C163.652 55.3359 163.691 55.8242 163.77 56.2773C163.855 56.7305 163.992 57.1328 164.18 57.4844C164.375 57.8281 164.625 58.0977 164.93 58.293C165.242 58.4805 165.621 58.5742 166.066 58.5742C166.645 58.5742 167.121 58.4453 167.496 58.1875C167.871 57.9219 168.156 57.5586 168.352 57.0977C168.555 56.6367 168.672 56.1055 168.703 55.5039V53.9688C168.68 53.4766 168.609 53.0352 168.492 52.6445C168.383 52.2461 168.219 51.9062 168 51.625C167.789 51.3438 167.523 51.125 167.203 50.9688C166.891 50.8125 166.52 50.7344 166.09 50.7344C165.652 50.7344 165.277 50.8359 164.965 51.0391C164.652 51.2344 164.398 51.5039 164.203 51.8477C164.016 52.1914 163.875 52.5977 163.781 53.0664C163.695 53.5273 163.652 54.0273 163.652 54.5664ZM177.891 48.3203V61H174.504V48.3203H177.891ZM174.293 45.0156C174.293 44.5234 174.465 44.1172 174.809 43.7969C175.152 43.4766 175.613 43.3164 176.191 43.3164C176.762 43.3164 177.219 43.4766 177.562 43.7969C177.914 44.1172 178.09 44.5234 178.09 45.0156C178.09 45.5078 177.914 45.9141 177.562 46.2344C177.219 46.5547 176.762 46.7148 176.191 46.7148C175.613 46.7148 175.152 46.5547 174.809 46.2344C174.465 45.9141 174.293 45.5078 174.293 45.0156ZM184.98 61H181.582V47.1953C181.582 46.2344 181.77 45.4258 182.145 44.7695C182.527 44.1055 183.062 43.6055 183.75 43.2695C184.445 42.9258 185.27 42.7539 186.223 42.7539C186.535 42.7539 186.836 42.7773 187.125 42.8242C187.414 42.8633 187.695 42.9141 187.969 42.9766L187.934 45.5195C187.785 45.4805 187.629 45.4531 187.465 45.4375C187.301 45.4219 187.109 45.4141 186.891 45.4141C186.484 45.4141 186.137 45.4844 185.848 45.625C185.566 45.7578 185.352 45.957 185.203 46.2227C185.055 46.4883 184.98 46.8125 184.98 47.1953V61ZM187.512 48.3203V50.7109H179.695V48.3203H187.512ZM193.043 59.5703L196.406 48.3203H200.027L194.93 62.9102C194.82 63.2305 194.672 63.5742 194.484 63.9414C194.305 64.3086 194.059 64.6562 193.746 64.9844C193.441 65.3203 193.055 65.5938 192.586 65.8047C192.125 66.0156 191.559 66.1211 190.887 66.1211C190.566 66.1211 190.305 66.1016 190.102 66.0625C189.898 66.0234 189.656 65.9688 189.375 65.8984V63.4258C189.461 63.4258 189.551 63.4258 189.645 63.4258C189.738 63.4336 189.828 63.4375 189.914 63.4375C190.359 63.4375 190.723 63.3867 191.004 63.2852C191.285 63.1836 191.512 63.0273 191.684 62.8164C191.855 62.6133 191.992 62.3477 192.094 62.0195L193.043 59.5703ZM191.637 48.3203L194.391 57.5078L194.871 61.082L192.574 61.3281L188.016 48.3203H191.637Z" fill="#888888"/>
<path d="M114.117 84.875H122.344V107.164C122.344 109.82 121.789 112.07 120.68 113.914C119.57 115.742 118.016 117.125 116.016 118.062C114.016 119 111.664 119.469 108.961 119.469C106.289 119.469 103.938 119 101.906 118.062C99.8906 117.125 98.3125 115.742 97.1719 113.914C96.0469 112.07 95.4844 109.82 95.4844 107.164V84.875H103.734V107.164C103.734 108.57 103.938 109.719 104.344 110.609C104.75 111.484 105.344 112.125 106.125 112.531C106.906 112.938 107.852 113.141 108.961 113.141C110.086 113.141 111.031 112.938 111.797 112.531C112.562 112.125 113.141 111.484 113.531 110.609C113.922 109.719 114.117 108.57 114.117 107.164V84.875ZM134.906 99.0547V119H127.008V93.6406H134.414L134.906 99.0547ZM133.969 105.453L132.117 105.5C132.117 103.562 132.352 101.836 132.82 100.32C133.289 98.7891 133.953 97.4922 134.812 96.4297C135.672 95.3672 136.695 94.5625 137.883 94.0156C139.086 93.4531 140.422 93.1719 141.891 93.1719C143.062 93.1719 144.133 93.3438 145.102 93.6875C146.086 94.0312 146.93 94.5859 147.633 95.3516C148.352 96.1172 148.898 97.1328 149.273 98.3984C149.664 99.6484 149.859 101.195 149.859 103.039V119H141.914V103.016C141.914 102 141.773 101.227 141.492 100.695C141.211 100.148 140.805 99.7734 140.273 99.5703C139.742 99.3672 139.094 99.2656 138.328 99.2656C137.516 99.2656 136.828 99.4219 136.266 99.7344C135.703 100.047 135.25 100.484 134.906 101.047C134.578 101.594 134.336 102.242 134.18 102.992C134.039 103.742 133.969 104.562 133.969 105.453ZM162.586 93.6406V119H154.664V93.6406H162.586ZM154.195 87.1016C154.195 85.9766 154.602 85.0547 155.414 84.3359C156.227 83.6172 157.281 83.2578 158.578 83.2578C159.875 83.2578 160.93 83.6172 161.742 84.3359C162.555 85.0547 162.961 85.9766 162.961 87.1016C162.961 88.2266 162.555 89.1484 161.742 89.8672C160.93 90.5859 159.875 90.9453 158.578 90.9453C157.281 90.9453 156.227 90.5859 155.414 89.8672C154.602 89.1484 154.195 88.2266 154.195 87.1016ZM180.82 93.6406V99.125H165.539V93.6406H180.82ZM168.75 87.3359H176.648V110.727C176.648 111.398 176.727 111.922 176.883 112.297C177.039 112.656 177.305 112.914 177.68 113.07C178.07 113.211 178.586 113.281 179.227 113.281C179.68 113.281 180.055 113.273 180.352 113.258C180.648 113.227 180.93 113.188 181.195 113.141V118.789C180.523 119.008 179.82 119.172 179.086 119.281C178.352 119.406 177.57 119.469 176.742 119.469C175.055 119.469 173.609 119.203 172.406 118.672C171.219 118.141 170.312 117.305 169.688 116.164C169.062 115.023 168.75 113.539 168.75 111.711V87.3359ZM211.406 84.875V119H203.18V84.875H211.406ZM221.672 84.875V91.2266H193.148V84.875H221.672ZM234.961 119.469C232.898 119.469 231.055 119.148 229.43 118.508C227.805 117.852 226.43 116.953 225.305 115.812C224.195 114.672 223.344 113.359 222.75 111.875C222.172 110.391 221.883 108.82 221.883 107.164V106.273C221.883 104.414 222.141 102.695 222.656 101.117C223.172 99.5234 223.938 98.1328 224.953 96.9453C225.969 95.7578 227.242 94.8359 228.773 94.1797C230.305 93.5078 232.086 93.1719 234.117 93.1719C235.914 93.1719 237.523 93.4609 238.945 94.0391C240.367 94.6172 241.57 95.4453 242.555 96.5234C243.555 97.6016 244.312 98.9062 244.828 100.438C245.359 101.969 245.625 103.688 245.625 105.594V108.805H224.906V103.859H237.914V103.25C237.93 102.406 237.781 101.688 237.469 101.094C237.172 100.5 236.734 100.047 236.156 99.7344C235.578 99.4219 234.875 99.2656 234.047 99.2656C233.188 99.2656 232.477 99.4531 231.914 99.8281C231.367 100.203 230.938 100.719 230.625 101.375C230.328 102.016 230.117 102.758 229.992 103.602C229.867 104.445 229.805 105.336 229.805 106.273V107.164C229.805 108.102 229.93 108.953 230.18 109.719C230.445 110.484 230.82 111.141 231.305 111.688C231.805 112.219 232.398 112.633 233.086 112.93C233.789 113.227 234.586 113.375 235.477 113.375C236.555 113.375 237.617 113.172 238.664 112.766C239.711 112.359 240.609 111.688 241.359 110.75L244.945 115.016C244.43 115.75 243.695 116.461 242.742 117.148C241.805 117.836 240.68 118.398 239.367 118.836C238.055 119.258 236.586 119.469 234.961 119.469ZM262.125 111.875C262.125 111.438 261.977 111.062 261.68 110.75C261.398 110.422 260.898 110.125 260.18 109.859C259.461 109.578 258.453 109.297 257.156 109.016C255.922 108.75 254.758 108.398 253.664 107.961C252.586 107.523 251.641 106.992 250.828 106.367C250.016 105.742 249.375 105 248.906 104.141C248.453 103.281 248.227 102.297 248.227 101.188C248.227 100.109 248.453 99.0938 248.906 98.1406C249.375 97.1719 250.055 96.3203 250.945 95.5859C251.852 94.8359 252.953 94.25 254.25 93.8281C255.547 93.3906 257.023 93.1719 258.68 93.1719C260.961 93.1719 262.93 93.5234 264.586 94.2266C266.242 94.9141 267.516 95.8828 268.406 97.1328C269.312 98.3672 269.766 99.7969 269.766 101.422H261.867C261.867 100.781 261.758 100.234 261.539 99.7812C261.336 99.3281 261 98.9844 260.531 98.75C260.062 98.5 259.438 98.375 258.656 98.375C258.109 98.375 257.609 98.4766 257.156 98.6797C256.719 98.8828 256.367 99.1641 256.102 99.5234C255.836 99.8828 255.703 100.305 255.703 100.789C255.703 101.133 255.781 101.445 255.938 101.727C256.109 101.992 256.367 102.242 256.711 102.477C257.055 102.695 257.492 102.898 258.023 103.086C258.555 103.258 259.195 103.414 259.945 103.555C261.648 103.867 263.242 104.312 264.727 104.891C266.211 105.469 267.414 106.289 268.336 107.352C269.273 108.414 269.742 109.844 269.742 111.641C269.742 112.766 269.484 113.805 268.969 114.758C268.453 115.695 267.711 116.523 266.742 117.242C265.773 117.945 264.609 118.492 263.25 118.883C261.891 119.273 260.359 119.469 258.656 119.469C256.234 119.469 254.188 119.039 252.516 118.18C250.844 117.305 249.578 116.211 248.719 114.898C247.875 113.57 247.453 112.227 247.453 110.867H254.812C254.844 111.648 255.031 112.289 255.375 112.789C255.734 113.289 256.211 113.656 256.805 113.891C257.398 114.125 258.086 114.242 258.867 114.242C259.586 114.242 260.18 114.141 260.648 113.938C261.133 113.734 261.5 113.461 261.75 113.117C262 112.758 262.125 112.344 262.125 111.875ZM286.805 93.6406V99.125H271.523V93.6406H286.805ZM274.734 87.3359H282.633V110.727C282.633 111.398 282.711 111.922 282.867 112.297C283.023 112.656 283.289 112.914 283.664 113.07C284.055 113.211 284.57 113.281 285.211 113.281C285.664 113.281 286.039 113.273 286.336 113.258C286.633 113.227 286.914 113.188 287.18 113.141V118.789C286.508 119.008 285.805 119.172 285.07 119.281C284.336 119.406 283.555 119.469 282.727 119.469C281.039 119.469 279.594 119.203 278.391 118.672C277.203 118.141 276.297 117.305 275.672 116.164C275.047 115.023 274.734 113.539 274.734 111.711V87.3359ZM298.289 93.6406V119H290.367V93.6406H298.289ZM289.898 87.1016C289.898 85.9766 290.305 85.0547 291.117 84.3359C291.93 83.6172 292.984 83.2578 294.281 83.2578C295.578 83.2578 296.633 83.6172 297.445 84.3359C298.258 85.0547 298.664 85.9766 298.664 87.1016C298.664 88.2266 298.258 89.1484 297.445 89.8672C296.633 90.5859 295.578 90.9453 294.281 90.9453C292.984 90.9453 291.93 90.5859 291.117 89.8672C290.305 89.1484 289.898 88.2266 289.898 87.1016ZM310.922 99.0547V119H303.023V93.6406H310.43L310.922 99.0547ZM309.984 105.453L308.133 105.5C308.133 103.562 308.367 101.836 308.836 100.32C309.305 98.7891 309.969 97.4922 310.828 96.4297C311.688 95.3672 312.711 94.5625 313.898 94.0156C315.102 93.4531 316.438 93.1719 317.906 93.1719C319.078 93.1719 320.148 93.3438 321.117 93.6875C322.102 94.0312 322.945 94.5859 323.648 95.3516C324.367 96.1172 324.914 97.1328 325.289 98.3984C325.68 99.6484 325.875 101.195 325.875 103.039V119H317.93V103.016C317.93 102 317.789 101.227 317.508 100.695C317.227 100.148 316.82 99.7734 316.289 99.5703C315.758 99.3672 315.109 99.2656 314.344 99.2656C313.531 99.2656 312.844 99.4219 312.281 99.7344C311.719 100.047 311.266 100.484 310.922 101.047C310.594 101.594 310.352 102.242 310.195 102.992C310.055 103.742 309.984 104.562 309.984 105.453ZM346.195 93.6406H353.367V118.016C353.367 120.359 352.828 122.344 351.75 123.969C350.672 125.609 349.164 126.852 347.227 127.695C345.305 128.555 343.055 128.984 340.477 128.984C339.336 128.984 338.172 128.836 336.984 128.539C335.797 128.258 334.688 127.836 333.656 127.273C332.625 126.711 331.758 126.016 331.055 125.188L334.359 120.547C335 121.266 335.805 121.875 336.773 122.375C337.742 122.891 338.883 123.148 340.195 123.148C341.336 123.148 342.289 122.945 343.055 122.539C343.836 122.133 344.43 121.539 344.836 120.758C345.242 119.992 345.445 119.062 345.445 117.969V99.6406L346.195 93.6406ZM329.344 106.625V106.133C329.344 104.211 329.578 102.461 330.047 100.883C330.531 99.2891 331.219 97.9219 332.109 96.7812C333.016 95.625 334.109 94.7344 335.391 94.1094C336.672 93.4844 338.117 93.1719 339.727 93.1719C341.461 93.1719 342.883 93.5078 343.992 94.1797C345.117 94.8359 346.016 95.7578 346.688 96.9453C347.375 98.1328 347.906 99.5234 348.281 101.117C348.672 102.695 349 104.398 349.266 106.227V106.812C349 108.531 348.633 110.156 348.164 111.688C347.711 113.203 347.117 114.547 346.383 115.719C345.648 116.891 344.727 117.812 343.617 118.484C342.523 119.141 341.211 119.469 339.68 119.469C338.086 119.469 336.648 119.148 335.367 118.508C334.102 117.867 333.016 116.969 332.109 115.812C331.219 114.656 330.531 113.297 330.047 111.734C329.578 110.172 329.344 108.469 329.344 106.625ZM337.242 106.133V106.625C337.242 107.578 337.328 108.461 337.5 109.273C337.688 110.086 337.969 110.805 338.344 111.43C338.719 112.039 339.18 112.516 339.727 112.859C340.289 113.203 340.945 113.375 341.695 113.375C342.836 113.375 343.758 113.133 344.461 112.648C345.164 112.164 345.672 111.477 345.984 110.586C346.297 109.695 346.43 108.648 346.383 107.445V105.594C346.414 104.562 346.344 103.656 346.172 102.875C346 102.078 345.727 101.414 345.352 100.883C344.992 100.352 344.508 99.9531 343.898 99.6875C343.305 99.4062 342.586 99.2656 341.742 99.2656C341.008 99.2656 340.359 99.4375 339.797 99.7812C339.234 100.125 338.766 100.609 338.391 101.234C338.016 101.844 337.727 102.57 337.523 103.414C337.336 104.242 337.242 105.148 337.242 106.133Z" fill="black"/>
<path d="M1134 0H1348C1356.28 0 1363 6.71573 1363 15V148C1363 156.284 1356.28 163 1348 163H1134V0Z" fill="#FF5A08"/>
<path d="M1210.62 43.625H1286.38V119.375H1210.62V43.625Z" fill="white" fill-opacity="0.01"/>
<path d="M1276.91 72.0312V105.172C1276.91 107.787 1274.79 109.906 1272.17 109.906H1224.83C1222.21 109.906 1220.09 107.787 1220.09 105.172V57.8281C1220.09 55.2134 1222.21 53.0938 1224.83 53.0938H1261.12" stroke="white" stroke-width="7.24" stroke-linecap="round" stroke-linejoin="round"/>
<path d="M1232.72 75.1875L1248.5 87.8125L1276.91 53.0938" stroke="white" stroke-width="7.24" stroke-linecap="round" stroke-linejoin="round"/>
</svg>
