<svg width="1363" height="163" viewBox="0 0 1363 163" fill="none" xmlns="http://www.w3.org/2000/svg">
<path d="M0 15C0 6.71573 6.71573 0 15 0H37V163H15C6.71573 163 0 156.284 0 148V15Z" fill="#424242"/>
<rect width="1097" height="163" transform="translate(37)" fill="#F0F0F0"/>
<path d="M101.906 53.9219L94.3945 51.2383V48.0859L104.602 52.375V54.6367L101.906 53.9219ZM94.3945 56.1719L101.918 53.4297L104.602 52.7852V55.0352L94.3945 59.3242V56.1719ZM114.504 43.9375H117.48L121.863 56.4648L126.246 43.9375H129.223L123.059 61H120.668L114.504 43.9375ZM112.898 43.9375H115.863L116.402 56.1484V61H112.898V43.9375ZM127.863 43.9375H130.84V61H127.324V56.1484L127.863 43.9375ZM133.172 54.7891V54.543C133.172 53.6133 133.305 52.7578 133.57 51.9766C133.836 51.1875 134.223 50.5039 134.73 49.9258C135.238 49.3477 135.863 48.8984 136.605 48.5781C137.348 48.25 138.199 48.0859 139.16 48.0859C140.121 48.0859 140.977 48.25 141.727 48.5781C142.477 48.8984 143.105 49.3477 143.613 49.9258C144.129 50.5039 144.52 51.1875 144.785 51.9766C145.051 52.7578 145.184 53.6133 145.184 54.543V54.7891C145.184 55.7109 145.051 56.5664 144.785 57.3555C144.52 58.1367 144.129 58.8203 143.613 59.4062C143.105 59.9844 142.48 60.4336 141.738 60.7539C140.996 61.0742 140.145 61.2344 139.184 61.2344C138.223 61.2344 137.367 61.0742 136.617 60.7539C135.875 60.4336 135.246 59.9844 134.73 59.4062C134.223 58.8203 133.836 58.1367 133.57 57.3555C133.305 56.5664 133.172 55.7109 133.172 54.7891ZM136.547 54.543V54.7891C136.547 55.3203 136.594 55.8164 136.688 56.2773C136.781 56.7383 136.93 57.1445 137.133 57.4961C137.344 57.8398 137.617 58.1094 137.953 58.3047C138.289 58.5 138.699 58.5977 139.184 58.5977C139.652 58.5977 140.055 58.5 140.391 58.3047C140.727 58.1094 140.996 57.8398 141.199 57.4961C141.402 57.1445 141.551 56.7383 141.645 56.2773C141.746 55.8164 141.797 55.3203 141.797 54.7891V54.543C141.797 54.0273 141.746 53.543 141.645 53.0898C141.551 52.6289 141.398 52.2227 141.188 51.8711C140.984 51.5117 140.715 51.2305 140.379 51.0273C140.043 50.8242 139.637 50.7227 139.16 50.7227C138.684 50.7227 138.277 50.8242 137.941 51.0273C137.613 51.2305 137.344 51.5117 137.133 51.8711C136.93 52.2227 136.781 52.6289 136.688 53.0898C136.594 53.543 136.547 54.0273 136.547 54.543ZM146.719 54.7891V54.543C146.719 53.6133 146.852 52.7578 147.117 51.9766C147.383 51.1875 147.77 50.5039 148.277 49.9258C148.785 49.3477 149.41 48.8984 150.152 48.5781C150.895 48.25 151.746 48.0859 152.707 48.0859C153.668 48.0859 154.523 48.25 155.273 48.5781C156.023 48.8984 156.652 49.3477 157.16 49.9258C157.676 50.5039 158.066 51.1875 158.332 51.9766C158.598 52.7578 158.73 53.6133 158.73 54.543V54.7891C158.73 55.7109 158.598 56.5664 158.332 57.3555C158.066 58.1367 157.676 58.8203 157.16 59.4062C156.652 59.9844 156.027 60.4336 155.285 60.7539C154.543 61.0742 153.691 61.2344 152.73 61.2344C151.77 61.2344 150.914 61.0742 150.164 60.7539C149.422 60.4336 148.793 59.9844 148.277 59.4062C147.77 58.8203 147.383 58.1367 147.117 57.3555C146.852 56.5664 146.719 55.7109 146.719 54.7891ZM150.094 54.543V54.7891C150.094 55.3203 150.141 55.8164 150.234 56.2773C150.328 56.7383 150.477 57.1445 150.68 57.4961C150.891 57.8398 151.164 58.1094 151.5 58.3047C151.836 58.5 152.246 58.5977 152.73 58.5977C153.199 58.5977 153.602 58.5 153.938 58.3047C154.273 58.1094 154.543 57.8398 154.746 57.4961C154.949 57.1445 155.098 56.7383 155.191 56.2773C155.293 55.8164 155.344 55.3203 155.344 54.7891V54.543C155.344 54.0273 155.293 53.543 155.191 53.0898C155.098 52.6289 154.945 52.2227 154.734 51.8711C154.531 51.5117 154.262 51.2305 153.926 51.0273C153.59 50.8242 153.184 50.7227 152.707 50.7227C152.23 50.7227 151.824 50.8242 151.488 51.0273C151.16 51.2305 150.891 51.5117 150.68 51.8711C150.477 52.2227 150.328 52.6289 150.234 53.0898C150.141 53.543 150.094 54.0273 150.094 54.543ZM168.293 58.2344V43H171.691V61H168.633L168.293 58.2344ZM160.277 54.8125V54.5664C160.277 53.5977 160.387 52.7188 160.605 51.9297C160.824 51.1328 161.145 50.4492 161.566 49.8789C161.988 49.3086 162.508 48.8672 163.125 48.5547C163.742 48.2422 164.445 48.0859 165.234 48.0859C165.977 48.0859 166.625 48.2422 167.18 48.5547C167.742 48.8672 168.219 49.3125 168.609 49.8906C169.008 50.4609 169.328 51.1367 169.57 51.918C169.812 52.6914 169.988 53.5391 170.098 54.4609V55C169.988 55.8828 169.812 56.7031 169.57 57.4609C169.328 58.2188 169.008 58.8828 168.609 59.4531C168.219 60.0156 167.742 60.4531 167.18 60.7656C166.617 61.0781 165.961 61.2344 165.211 61.2344C164.422 61.2344 163.719 61.0742 163.102 60.7539C162.492 60.4336 161.977 59.9844 161.555 59.4062C161.141 58.8281 160.824 58.1484 160.605 57.3672C160.387 56.5859 160.277 55.7344 160.277 54.8125ZM163.652 54.5664V54.8125C163.652 55.3359 163.691 55.8242 163.77 56.2773C163.855 56.7305 163.992 57.1328 164.18 57.4844C164.375 57.8281 164.625 58.0977 164.93 58.293C165.242 58.4805 165.621 58.5742 166.066 58.5742C166.645 58.5742 167.121 58.4453 167.496 58.1875C167.871 57.9219 168.156 57.5586 168.352 57.0977C168.555 56.6367 168.672 56.1055 168.703 55.5039V53.9688C168.68 53.4766 168.609 53.0352 168.492 52.6445C168.383 52.2461 168.219 51.9062 168 51.625C167.789 51.3438 167.523 51.125 167.203 50.9688C166.891 50.8125 166.52 50.7344 166.09 50.7344C165.652 50.7344 165.277 50.8359 164.965 51.0391C164.652 51.2344 164.398 51.5039 164.203 51.8477C164.016 52.1914 163.875 52.5977 163.781 53.0664C163.695 53.5273 163.652 54.0273 163.652 54.5664ZM177.891 48.3203V61H174.504V48.3203H177.891ZM174.293 45.0156C174.293 44.5234 174.465 44.1172 174.809 43.7969C175.152 43.4766 175.613 43.3164 176.191 43.3164C176.762 43.3164 177.219 43.4766 177.562 43.7969C177.914 44.1172 178.09 44.5234 178.09 45.0156C178.09 45.5078 177.914 45.9141 177.562 46.2344C177.219 46.5547 176.762 46.7148 176.191 46.7148C175.613 46.7148 175.152 46.5547 174.809 46.2344C174.465 45.9141 174.293 45.5078 174.293 45.0156ZM184.98 61H181.582V47.1953C181.582 46.2344 181.77 45.4258 182.145 44.7695C182.527 44.1055 183.062 43.6055 183.75 43.2695C184.445 42.9258 185.27 42.7539 186.223 42.7539C186.535 42.7539 186.836 42.7773 187.125 42.8242C187.414 42.8633 187.695 42.9141 187.969 42.9766L187.934 45.5195C187.785 45.4805 187.629 45.4531 187.465 45.4375C187.301 45.4219 187.109 45.4141 186.891 45.4141C186.484 45.4141 186.137 45.4844 185.848 45.625C185.566 45.7578 185.352 45.957 185.203 46.2227C185.055 46.4883 184.98 46.8125 184.98 47.1953V61ZM187.512 48.3203V50.7109H179.695V48.3203H187.512ZM193.043 59.5703L196.406 48.3203H200.027L194.93 62.9102C194.82 63.2305 194.672 63.5742 194.484 63.9414C194.305 64.3086 194.059 64.6562 193.746 64.9844C193.441 65.3203 193.055 65.5938 192.586 65.8047C192.125 66.0156 191.559 66.1211 190.887 66.1211C190.566 66.1211 190.305 66.1016 190.102 66.0625C189.898 66.0234 189.656 65.9688 189.375 65.8984V63.4258C189.461 63.4258 189.551 63.4258 189.645 63.4258C189.738 63.4336 189.828 63.4375 189.914 63.4375C190.359 63.4375 190.723 63.3867 191.004 63.2852C191.285 63.1836 191.512 63.0273 191.684 62.8164C191.855 62.6133 191.992 62.3477 192.094 62.0195L193.043 59.5703ZM191.637 48.3203L194.391 57.5078L194.871 61.082L192.574 61.3281L188.016 48.3203H191.637Z" fill="#888888"/>
<path d="M114.117 84.875H122.344V107.164C122.344 109.82 121.789 112.07 120.68 113.914C119.57 115.742 118.016 117.125 116.016 118.062C114.016 119 111.664 119.469 108.961 119.469C106.289 119.469 103.938 119 101.906 118.062C99.8906 117.125 98.3125 115.742 97.1719 113.914C96.0469 112.07 95.4844 109.82 95.4844 107.164V84.875H103.734V107.164C103.734 108.57 103.938 109.719 104.344 110.609C104.75 111.484 105.344 112.125 106.125 112.531C106.906 112.938 107.852 113.141 108.961 113.141C110.086 113.141 111.031 112.938 111.797 112.531C112.562 112.125 113.141 111.484 113.531 110.609C113.922 109.719 114.117 108.57 114.117 107.164V84.875ZM136.266 84.875V119H128.062V84.875H136.266ZM172.523 84.875H180.75V107.164C180.75 109.82 180.195 112.07 179.086 113.914C177.977 115.742 176.422 117.125 174.422 118.062C172.422 119 170.07 119.469 167.367 119.469C164.695 119.469 162.344 119 160.312 118.062C158.297 117.125 156.719 115.742 155.578 113.914C154.453 112.07 153.891 109.82 153.891 107.164V84.875H162.141V107.164C162.141 108.57 162.344 109.719 162.75 110.609C163.156 111.484 163.75 112.125 164.531 112.531C165.312 112.938 166.258 113.141 167.367 113.141C168.492 113.141 169.438 112.938 170.203 112.531C170.969 112.125 171.547 111.484 171.938 110.609C172.328 109.719 172.523 108.57 172.523 107.164V84.875ZM193.078 84.875L198.656 96.2188L204.234 84.875H213.609L204.094 101.797L213.867 119H204.398L198.656 107.445L192.914 119H183.422L193.219 101.797L183.68 84.875H193.078Z" fill="black"/>
<path d="M1134 0H1348C1356.28 0 1363 6.71573 1363 15V148C1363 156.284 1356.28 163 1348 163H1134V0Z" fill="#FF5A08"/>
<path d="M1248.5 111.917C1244.51 111.917 1240.55 111.13 1236.86 109.601C1233.17 108.073 1229.82 105.832 1226.99 103.008C1221.29 97.3036 1218.08 89.567 1218.08 81.5C1218.08 73.433 1221.29 65.6964 1226.99 59.9922C1232.7 54.2879 1240.43 51.0833 1248.5 51.0833C1265.23 51.0833 1278.92 63.25 1278.92 78.4583C1278.92 83.2985 1276.99 87.9405 1273.57 91.363C1270.15 94.7856 1265.51 96.7083 1260.67 96.7083H1255.19C1254.28 96.7083 1253.67 97.3167 1253.67 98.2292C1253.67 98.5333 1253.97 98.8375 1253.97 99.1417C1255.19 100.662 1255.8 102.487 1255.8 104.312C1256.1 108.571 1252.76 111.917 1248.5 111.917ZM1248.5 57.1667C1242.05 57.1667 1235.86 59.7303 1231.29 64.2937C1226.73 68.8571 1224.17 75.0464 1224.17 81.5C1224.17 87.9536 1226.73 94.1429 1231.29 98.7063C1235.86 103.27 1242.05 105.833 1248.5 105.833C1249.41 105.833 1250.02 105.225 1250.02 104.312C1250.02 103.704 1249.72 103.4 1249.72 103.096C1248.5 101.575 1247.89 100.054 1247.89 98.2292C1247.89 93.9708 1251.24 90.625 1255.5 90.625H1260.67C1263.89 90.625 1266.99 89.3432 1269.27 87.0615C1271.55 84.7798 1272.83 81.6851 1272.83 78.4583C1272.83 66.5958 1261.88 57.1667 1248.5 57.1667ZM1231.77 75.4167C1234.2 75.4167 1236.33 77.5458 1236.33 79.9792C1236.33 82.4125 1234.2 84.5417 1231.77 84.5417C1229.34 84.5417 1227.21 82.4125 1227.21 79.9792C1227.21 77.5458 1229.34 75.4167 1231.77 75.4167ZM1240.9 63.25C1243.33 63.25 1245.46 65.3792 1245.46 67.8125C1245.46 70.2458 1243.33 72.375 1240.9 72.375C1238.46 72.375 1236.33 70.2458 1236.33 67.8125C1236.33 65.3792 1238.46 63.25 1240.9 63.25ZM1256.1 63.25C1258.54 63.25 1260.67 65.3792 1260.67 67.8125C1260.67 70.2458 1258.54 72.375 1256.1 72.375C1253.67 72.375 1251.54 70.2458 1251.54 67.8125C1251.54 65.3792 1253.67 63.25 1256.1 63.25ZM1265.23 75.4167C1267.66 75.4167 1269.79 77.5458 1269.79 79.9792C1269.79 82.4125 1267.66 84.5417 1265.23 84.5417C1262.8 84.5417 1260.67 82.4125 1260.67 79.9792C1260.67 77.5458 1262.8 75.4167 1265.23 75.4167Z" fill="white"/>
</svg>
