<svg width="1363" height="163" viewBox="0 0 1363 163" fill="none" xmlns="http://www.w3.org/2000/svg">
<path d="M0 15C0 6.71573 6.71573 0 15 0H37V163H15C6.71573 163 0 156.284 0 148V15Z" fill="#424242"/>
<rect width="1097" height="163" transform="translate(37)" fill="#F0F0F0"/>
<path d="M101.906 53.9219L94.3945 51.2383V48.0859L104.602 52.375V54.6367L101.906 53.9219ZM94.3945 56.1719L101.918 53.4297L104.602 52.7852V55.0352L94.3945 59.3242V56.1719ZM114.504 43.9375H117.48L121.863 56.4648L126.246 43.9375H129.223L123.059 61H120.668L114.504 43.9375ZM112.898 43.9375H115.863L116.402 56.1484V61H112.898V43.9375ZM127.863 43.9375H130.84V61H127.324V56.1484L127.863 43.9375ZM133.172 54.7891V54.543C133.172 53.6133 133.305 52.7578 133.57 51.9766C133.836 51.1875 134.223 50.5039 134.73 49.9258C135.238 49.3477 135.863 48.8984 136.605 48.5781C137.348 48.25 138.199 48.0859 139.16 48.0859C140.121 48.0859 140.977 48.25 141.727 48.5781C142.477 48.8984 143.105 49.3477 143.613 49.9258C144.129 50.5039 144.52 51.1875 144.785 51.9766C145.051 52.7578 145.184 53.6133 145.184 54.543V54.7891C145.184 55.7109 145.051 56.5664 144.785 57.3555C144.52 58.1367 144.129 58.8203 143.613 59.4062C143.105 59.9844 142.48 60.4336 141.738 60.7539C140.996 61.0742 140.145 61.2344 139.184 61.2344C138.223 61.2344 137.367 61.0742 136.617 60.7539C135.875 60.4336 135.246 59.9844 134.73 59.4062C134.223 58.8203 133.836 58.1367 133.57 57.3555C133.305 56.5664 133.172 55.7109 133.172 54.7891ZM136.547 54.543V54.7891C136.547 55.3203 136.594 55.8164 136.688 56.2773C136.781 56.7383 136.93 57.1445 137.133 57.4961C137.344 57.8398 137.617 58.1094 137.953 58.3047C138.289 58.5 138.699 58.5977 139.184 58.5977C139.652 58.5977 140.055 58.5 140.391 58.3047C140.727 58.1094 140.996 57.8398 141.199 57.4961C141.402 57.1445 141.551 56.7383 141.645 56.2773C141.746 55.8164 141.797 55.3203 141.797 54.7891V54.543C141.797 54.0273 141.746 53.543 141.645 53.0898C141.551 52.6289 141.398 52.2227 141.188 51.8711C140.984 51.5117 140.715 51.2305 140.379 51.0273C140.043 50.8242 139.637 50.7227 139.16 50.7227C138.684 50.7227 138.277 50.8242 137.941 51.0273C137.613 51.2305 137.344 51.5117 137.133 51.8711C136.93 52.2227 136.781 52.6289 136.688 53.0898C136.594 53.543 136.547 54.0273 136.547 54.543ZM146.719 54.7891V54.543C146.719 53.6133 146.852 52.7578 147.117 51.9766C147.383 51.1875 147.77 50.5039 148.277 49.9258C148.785 49.3477 149.41 48.8984 150.152 48.5781C150.895 48.25 151.746 48.0859 152.707 48.0859C153.668 48.0859 154.523 48.25 155.273 48.5781C156.023 48.8984 156.652 49.3477 157.16 49.9258C157.676 50.5039 158.066 51.1875 158.332 51.9766C158.598 52.7578 158.73 53.6133 158.73 54.543V54.7891C158.73 55.7109 158.598 56.5664 158.332 57.3555C158.066 58.1367 157.676 58.8203 157.16 59.4062C156.652 59.9844 156.027 60.4336 155.285 60.7539C154.543 61.0742 153.691 61.2344 152.73 61.2344C151.77 61.2344 150.914 61.0742 150.164 60.7539C149.422 60.4336 148.793 59.9844 148.277 59.4062C147.77 58.8203 147.383 58.1367 147.117 57.3555C146.852 56.5664 146.719 55.7109 146.719 54.7891ZM150.094 54.543V54.7891C150.094 55.3203 150.141 55.8164 150.234 56.2773C150.328 56.7383 150.477 57.1445 150.68 57.4961C150.891 57.8398 151.164 58.1094 151.5 58.3047C151.836 58.5 152.246 58.5977 152.73 58.5977C153.199 58.5977 153.602 58.5 153.938 58.3047C154.273 58.1094 154.543 57.8398 154.746 57.4961C154.949 57.1445 155.098 56.7383 155.191 56.2773C155.293 55.8164 155.344 55.3203 155.344 54.7891V54.543C155.344 54.0273 155.293 53.543 155.191 53.0898C155.098 52.6289 154.945 52.2227 154.734 51.8711C154.531 51.5117 154.262 51.2305 153.926 51.0273C153.59 50.8242 153.184 50.7227 152.707 50.7227C152.23 50.7227 151.824 50.8242 151.488 51.0273C151.16 51.2305 150.891 51.5117 150.68 51.8711C150.477 52.2227 150.328 52.6289 150.234 53.0898C150.141 53.543 150.094 54.0273 150.094 54.543ZM168.293 58.2344V43H171.691V61H168.633L168.293 58.2344ZM160.277 54.8125V54.5664C160.277 53.5977 160.387 52.7188 160.605 51.9297C160.824 51.1328 161.145 50.4492 161.566 49.8789C161.988 49.3086 162.508 48.8672 163.125 48.5547C163.742 48.2422 164.445 48.0859 165.234 48.0859C165.977 48.0859 166.625 48.2422 167.18 48.5547C167.742 48.8672 168.219 49.3125 168.609 49.8906C169.008 50.4609 169.328 51.1367 169.57 51.918C169.812 52.6914 169.988 53.5391 170.098 54.4609V55C169.988 55.8828 169.812 56.7031 169.57 57.4609C169.328 58.2188 169.008 58.8828 168.609 59.4531C168.219 60.0156 167.742 60.4531 167.18 60.7656C166.617 61.0781 165.961 61.2344 165.211 61.2344C164.422 61.2344 163.719 61.0742 163.102 60.7539C162.492 60.4336 161.977 59.9844 161.555 59.4062C161.141 58.8281 160.824 58.1484 160.605 57.3672C160.387 56.5859 160.277 55.7344 160.277 54.8125ZM163.652 54.5664V54.8125C163.652 55.3359 163.691 55.8242 163.77 56.2773C163.855 56.7305 163.992 57.1328 164.18 57.4844C164.375 57.8281 164.625 58.0977 164.93 58.293C165.242 58.4805 165.621 58.5742 166.066 58.5742C166.645 58.5742 167.121 58.4453 167.496 58.1875C167.871 57.9219 168.156 57.5586 168.352 57.0977C168.555 56.6367 168.672 56.1055 168.703 55.5039V53.9688C168.68 53.4766 168.609 53.0352 168.492 52.6445C168.383 52.2461 168.219 51.9062 168 51.625C167.789 51.3438 167.523 51.125 167.203 50.9688C166.891 50.8125 166.52 50.7344 166.09 50.7344C165.652 50.7344 165.277 50.8359 164.965 51.0391C164.652 51.2344 164.398 51.5039 164.203 51.8477C164.016 52.1914 163.875 52.5977 163.781 53.0664C163.695 53.5273 163.652 54.0273 163.652 54.5664ZM177.891 48.3203V61H174.504V48.3203H177.891ZM174.293 45.0156C174.293 44.5234 174.465 44.1172 174.809 43.7969C175.152 43.4766 175.613 43.3164 176.191 43.3164C176.762 43.3164 177.219 43.4766 177.562 43.7969C177.914 44.1172 178.09 44.5234 178.09 45.0156C178.09 45.5078 177.914 45.9141 177.562 46.2344C177.219 46.5547 176.762 46.7148 176.191 46.7148C175.613 46.7148 175.152 46.5547 174.809 46.2344C174.465 45.9141 174.293 45.5078 174.293 45.0156ZM184.98 61H181.582V47.1953C181.582 46.2344 181.77 45.4258 182.145 44.7695C182.527 44.1055 183.062 43.6055 183.75 43.2695C184.445 42.9258 185.27 42.7539 186.223 42.7539C186.535 42.7539 186.836 42.7773 187.125 42.8242C187.414 42.8633 187.695 42.9141 187.969 42.9766L187.934 45.5195C187.785 45.4805 187.629 45.4531 187.465 45.4375C187.301 45.4219 187.109 45.4141 186.891 45.4141C186.484 45.4141 186.137 45.4844 185.848 45.625C185.566 45.7578 185.352 45.957 185.203 46.2227C185.055 46.4883 184.98 46.8125 184.98 47.1953V61ZM187.512 48.3203V50.7109H179.695V48.3203H187.512ZM193.043 59.5703L196.406 48.3203H200.027L194.93 62.9102C194.82 63.2305 194.672 63.5742 194.484 63.9414C194.305 64.3086 194.059 64.6562 193.746 64.9844C193.441 65.3203 193.055 65.5938 192.586 65.8047C192.125 66.0156 191.559 66.1211 190.887 66.1211C190.566 66.1211 190.305 66.1016 190.102 66.0625C189.898 66.0234 189.656 65.9688 189.375 65.8984V63.4258C189.461 63.4258 189.551 63.4258 189.645 63.4258C189.738 63.4336 189.828 63.4375 189.914 63.4375C190.359 63.4375 190.723 63.3867 191.004 63.2852C191.285 63.1836 191.512 63.0273 191.684 62.8164C191.855 62.6133 191.992 62.3477 192.094 62.0195L193.043 59.5703ZM191.637 48.3203L194.391 57.5078L194.871 61.082L192.574 61.3281L188.016 48.3203H191.637Z" fill="#888888"/>
<path d="M112.125 84.875V119H103.898V84.875H112.125ZM122.391 84.875V91.2266H93.8672V84.875H122.391ZM135.68 119.469C133.617 119.469 131.773 119.148 130.148 118.508C128.523 117.852 127.148 116.953 126.023 115.812C124.914 114.672 124.062 113.359 123.469 111.875C122.891 110.391 122.602 108.82 122.602 107.164V106.273C122.602 104.414 122.859 102.695 123.375 101.117C123.891 99.5234 124.656 98.1328 125.672 96.9453C126.688 95.7578 127.961 94.8359 129.492 94.1797C131.023 93.5078 132.805 93.1719 134.836 93.1719C136.633 93.1719 138.242 93.4609 139.664 94.0391C141.086 94.6172 142.289 95.4453 143.273 96.5234C144.273 97.6016 145.031 98.9062 145.547 100.438C146.078 101.969 146.344 103.688 146.344 105.594V108.805H125.625V103.859H138.633V103.25C138.648 102.406 138.5 101.688 138.188 101.094C137.891 100.5 137.453 100.047 136.875 99.7344C136.297 99.4219 135.594 99.2656 134.766 99.2656C133.906 99.2656 133.195 99.4531 132.633 99.8281C132.086 100.203 131.656 100.719 131.344 101.375C131.047 102.016 130.836 102.758 130.711 103.602C130.586 104.445 130.523 105.336 130.523 106.273V107.164C130.523 108.102 130.648 108.953 130.898 109.719C131.164 110.484 131.539 111.141 132.023 111.688C132.523 112.219 133.117 112.633 133.805 112.93C134.508 113.227 135.305 113.375 136.195 113.375C137.273 113.375 138.336 113.172 139.383 112.766C140.43 112.359 141.328 111.688 142.078 110.75L145.664 115.016C145.148 115.75 144.414 116.461 143.461 117.148C142.523 117.836 141.398 118.398 140.086 118.836C138.773 119.258 137.305 119.469 135.68 119.469ZM160.266 113.375C161 113.375 161.625 113.242 162.141 112.977C162.672 112.695 163.07 112.305 163.336 111.805C163.617 111.289 163.75 110.672 163.734 109.953H171.164C171.18 111.859 170.711 113.531 169.758 114.969C168.82 116.391 167.539 117.5 165.914 118.297C164.305 119.078 162.484 119.469 160.453 119.469C158.469 119.469 156.734 119.148 155.25 118.508C153.766 117.852 152.523 116.945 151.523 115.789C150.539 114.617 149.797 113.25 149.297 111.688C148.812 110.125 148.57 108.43 148.57 106.602V106.062C148.57 104.234 148.812 102.539 149.297 100.977C149.797 99.3984 150.539 98.0312 151.523 96.875C152.523 95.7031 153.758 94.7969 155.227 94.1562C156.711 93.5 158.438 93.1719 160.406 93.1719C162.516 93.1719 164.375 93.5703 165.984 94.3672C167.609 95.1641 168.883 96.3203 169.805 97.8359C170.727 99.3516 171.18 101.188 171.164 103.344H163.734C163.75 102.578 163.633 101.891 163.383 101.281C163.133 100.672 162.742 100.188 162.211 99.8281C161.695 99.4531 161.031 99.2656 160.219 99.2656C159.406 99.2656 158.75 99.4453 158.25 99.8047C157.75 100.164 157.367 100.664 157.102 101.305C156.852 101.93 156.68 102.648 156.586 103.461C156.508 104.273 156.469 105.141 156.469 106.062V106.602C156.469 107.539 156.508 108.422 156.586 109.25C156.68 110.062 156.859 110.781 157.125 111.406C157.391 112.016 157.773 112.5 158.273 112.859C158.773 113.203 159.438 113.375 160.266 113.375ZM182.273 83V119H174.375V83H182.273ZM181.336 105.453L179.484 105.5C179.484 103.719 179.703 102.078 180.141 100.578C180.578 99.0781 181.203 97.7734 182.016 96.6641C182.828 95.5547 183.805 94.6953 184.945 94.0859C186.086 93.4766 187.352 93.1719 188.742 93.1719C189.992 93.1719 191.133 93.3516 192.164 93.7109C193.211 94.0703 194.109 94.6484 194.859 95.4453C195.625 96.2422 196.211 97.2812 196.617 98.5625C197.039 99.8438 197.25 101.406 197.25 103.25V119H189.305V103.203C189.305 102.172 189.156 101.375 188.859 100.812C188.578 100.234 188.172 99.8359 187.641 99.6172C187.109 99.3828 186.461 99.2656 185.695 99.2656C184.773 99.2656 184.023 99.4219 183.445 99.7344C182.867 100.047 182.422 100.484 182.109 101.047C181.812 101.594 181.609 102.242 181.5 102.992C181.391 103.742 181.336 104.562 181.336 105.453ZM231.539 109.93C231.539 109.398 231.461 108.922 231.305 108.5C231.148 108.062 230.859 107.656 230.438 107.281C230.016 106.906 229.406 106.531 228.609 106.156C227.828 105.766 226.797 105.359 225.516 104.938C224.016 104.438 222.57 103.875 221.18 103.25C219.789 102.609 218.547 101.867 217.453 101.023C216.359 100.164 215.492 99.1641 214.852 98.0234C214.211 96.8672 213.891 95.5234 213.891 93.9922C213.891 92.5234 214.219 91.2031 214.875 90.0312C215.531 88.8438 216.445 87.8359 217.617 87.0078C218.805 86.1641 220.195 85.5234 221.789 85.0859C223.383 84.6328 225.125 84.4062 227.016 84.4062C229.516 84.4062 231.719 84.8438 233.625 85.7188C235.547 86.5781 237.047 87.8047 238.125 89.3984C239.219 90.9766 239.766 92.8438 239.766 95H231.586C231.586 94.1406 231.406 93.3828 231.047 92.7266C230.703 92.0703 230.18 91.5547 229.477 91.1797C228.773 90.8047 227.891 90.6172 226.828 90.6172C225.797 90.6172 224.93 90.7734 224.227 91.0859C223.523 91.3984 222.992 91.8203 222.633 92.3516C222.273 92.8672 222.094 93.4375 222.094 94.0625C222.094 94.5781 222.234 95.0469 222.516 95.4688C222.812 95.875 223.227 96.2578 223.758 96.6172C224.305 96.9766 224.961 97.3203 225.727 97.6484C226.508 97.9766 227.383 98.2969 228.352 98.6094C230.164 99.1875 231.773 99.8359 233.18 100.555C234.602 101.258 235.797 102.062 236.766 102.969C237.75 103.859 238.492 104.875 238.992 106.016C239.508 107.156 239.766 108.445 239.766 109.883C239.766 111.414 239.469 112.773 238.875 113.961C238.281 115.148 237.43 116.156 236.32 116.984C235.211 117.797 233.883 118.414 232.336 118.836C230.789 119.258 229.062 119.469 227.156 119.469C225.406 119.469 223.68 119.25 221.977 118.812C220.289 118.359 218.758 117.672 217.383 116.75C216.008 115.812 214.906 114.617 214.078 113.164C213.266 111.695 212.859 109.953 212.859 107.938H221.109C221.109 108.938 221.242 109.781 221.508 110.469C221.773 111.156 222.164 111.711 222.68 112.133C223.195 112.539 223.828 112.836 224.578 113.023C225.328 113.195 226.188 113.281 227.156 113.281C228.203 113.281 229.047 113.133 229.688 112.836C230.328 112.523 230.797 112.117 231.094 111.617C231.391 111.102 231.539 110.539 231.539 109.93ZM256.992 93.6406V99.125H241.711V93.6406H256.992ZM244.922 87.3359H252.82V110.727C252.82 111.398 252.898 111.922 253.055 112.297C253.211 112.656 253.477 112.914 253.852 113.07C254.242 113.211 254.758 113.281 255.398 113.281C255.852 113.281 256.227 113.273 256.523 113.258C256.82 113.227 257.102 113.188 257.367 113.141V118.789C256.695 119.008 255.992 119.172 255.258 119.281C254.523 119.406 253.742 119.469 252.914 119.469C251.227 119.469 249.781 119.203 248.578 118.672C247.391 118.141 246.484 117.305 245.859 116.164C245.234 115.023 244.922 113.539 244.922 111.711V87.3359ZM273.305 112.625V102.172C273.305 101.453 273.203 100.836 273 100.32C272.797 99.8047 272.477 99.4062 272.039 99.125C271.602 98.8281 271.016 98.6797 270.281 98.6797C269.688 98.6797 269.18 98.7812 268.758 98.9844C268.336 99.1875 268.016 99.4922 267.797 99.8984C267.578 100.305 267.469 100.82 267.469 101.445H259.57C259.57 100.273 259.828 99.1875 260.344 98.1875C260.875 97.1719 261.625 96.2891 262.594 95.5391C263.578 94.7891 264.75 94.2109 266.109 93.8047C267.484 93.3828 269.016 93.1719 270.703 93.1719C272.719 93.1719 274.516 93.5078 276.094 94.1797C277.688 94.8516 278.945 95.8594 279.867 97.2031C280.789 98.5312 281.25 100.203 281.25 102.219V112.602C281.25 114.258 281.344 115.516 281.531 116.375C281.719 117.219 281.984 117.961 282.328 118.602V119H274.406C274.031 118.219 273.75 117.266 273.562 116.141C273.391 115 273.305 113.828 273.305 112.625ZM274.266 103.508L274.312 107.727H270.82C270.086 107.727 269.461 107.828 268.945 108.031C268.445 108.234 268.039 108.516 267.727 108.875C267.43 109.219 267.211 109.609 267.07 110.047C266.945 110.484 266.883 110.945 266.883 111.43C266.883 111.898 266.992 112.32 267.211 112.695C267.445 113.055 267.758 113.336 268.148 113.539C268.539 113.742 268.977 113.844 269.461 113.844C270.336 113.844 271.078 113.68 271.688 113.352C272.312 113.008 272.789 112.594 273.117 112.109C273.445 111.625 273.609 111.172 273.609 110.75L275.344 113.984C275.031 114.609 274.672 115.242 274.266 115.883C273.875 116.523 273.383 117.117 272.789 117.664C272.211 118.195 271.5 118.633 270.656 118.977C269.812 119.305 268.789 119.469 267.586 119.469C266.023 119.469 264.586 119.148 263.273 118.508C261.977 117.867 260.938 116.977 260.156 115.836C259.375 114.68 258.984 113.352 258.984 111.852C258.984 110.539 259.219 109.367 259.688 108.336C260.172 107.305 260.898 106.43 261.867 105.711C262.836 104.992 264.07 104.445 265.57 104.07C267.07 103.695 268.836 103.508 270.867 103.508H274.266ZM296.344 113.375C297.078 113.375 297.703 113.242 298.219 112.977C298.75 112.695 299.148 112.305 299.414 111.805C299.695 111.289 299.828 110.672 299.812 109.953H307.242C307.258 111.859 306.789 113.531 305.836 114.969C304.898 116.391 303.617 117.5 301.992 118.297C300.383 119.078 298.562 119.469 296.531 119.469C294.547 119.469 292.812 119.148 291.328 118.508C289.844 117.852 288.602 116.945 287.602 115.789C286.617 114.617 285.875 113.25 285.375 111.688C284.891 110.125 284.648 108.43 284.648 106.602V106.062C284.648 104.234 284.891 102.539 285.375 100.977C285.875 99.3984 286.617 98.0312 287.602 96.875C288.602 95.7031 289.836 94.7969 291.305 94.1562C292.789 93.5 294.516 93.1719 296.484 93.1719C298.594 93.1719 300.453 93.5703 302.062 94.3672C303.688 95.1641 304.961 96.3203 305.883 97.8359C306.805 99.3516 307.258 101.188 307.242 103.344H299.812C299.828 102.578 299.711 101.891 299.461 101.281C299.211 100.672 298.82 100.188 298.289 99.8281C297.773 99.4531 297.109 99.2656 296.297 99.2656C295.484 99.2656 294.828 99.4453 294.328 99.8047C293.828 100.164 293.445 100.664 293.18 101.305C292.93 101.93 292.758 102.648 292.664 103.461C292.586 104.273 292.547 105.141 292.547 106.062V106.602C292.547 107.539 292.586 108.422 292.664 109.25C292.758 110.062 292.938 110.781 293.203 111.406C293.469 112.016 293.852 112.5 294.352 112.859C294.852 113.203 295.516 113.375 296.344 113.375ZM318.586 82.9766V119H310.688V82.9766H318.586ZM334.805 93.6406L323.789 106.555L318.023 112.32L314.578 107.305L319.383 101.047L325.336 93.6406H334.805ZM326.344 119L319.57 107.445L325.406 103.297L335.391 119H326.344ZM350.156 111.875C350.156 111.438 350.008 111.062 349.711 110.75C349.43 110.422 348.93 110.125 348.211 109.859C347.492 109.578 346.484 109.297 345.188 109.016C343.953 108.75 342.789 108.398 341.695 107.961C340.617 107.523 339.672 106.992 338.859 106.367C338.047 105.742 337.406 105 336.938 104.141C336.484 103.281 336.258 102.297 336.258 101.188C336.258 100.109 336.484 99.0938 336.938 98.1406C337.406 97.1719 338.086 96.3203 338.977 95.5859C339.883 94.8359 340.984 94.25 342.281 93.8281C343.578 93.3906 345.055 93.1719 346.711 93.1719C348.992 93.1719 350.961 93.5234 352.617 94.2266C354.273 94.9141 355.547 95.8828 356.438 97.1328C357.344 98.3672 357.797 99.7969 357.797 101.422H349.898C349.898 100.781 349.789 100.234 349.57 99.7812C349.367 99.3281 349.031 98.9844 348.562 98.75C348.094 98.5 347.469 98.375 346.688 98.375C346.141 98.375 345.641 98.4766 345.188 98.6797C344.75 98.8828 344.398 99.1641 344.133 99.5234C343.867 99.8828 343.734 100.305 343.734 100.789C343.734 101.133 343.812 101.445 343.969 101.727C344.141 101.992 344.398 102.242 344.742 102.477C345.086 102.695 345.523 102.898 346.055 103.086C346.586 103.258 347.227 103.414 347.977 103.555C349.68 103.867 351.273 104.312 352.758 104.891C354.242 105.469 355.445 106.289 356.367 107.352C357.305 108.414 357.773 109.844 357.773 111.641C357.773 112.766 357.516 113.805 357 114.758C356.484 115.695 355.742 116.523 354.773 117.242C353.805 117.945 352.641 118.492 351.281 118.883C349.922 119.273 348.391 119.469 346.688 119.469C344.266 119.469 342.219 119.039 340.547 118.18C338.875 117.305 337.609 116.211 336.75 114.898C335.906 113.57 335.484 112.227 335.484 110.867H342.844C342.875 111.648 343.062 112.289 343.406 112.789C343.766 113.289 344.242 113.656 344.836 113.891C345.43 114.125 346.117 114.242 346.898 114.242C347.617 114.242 348.211 114.141 348.68 113.938C349.164 113.734 349.531 113.461 349.781 113.117C350.031 112.758 350.156 112.344 350.156 111.875Z" fill="black"/>
<path d="M1134 0H1348C1356.28 0 1363 6.71573 1363 15V148C1363 156.284 1356.28 163 1348 163H1134V0Z" fill="#FF5A08"/>
<path fill-rule="evenodd" clip-rule="evenodd" d="M1219.98 53C1219.85 53 1219.73 53.0527 1219.64 53.1464C1219.55 53.2402 1219.5 53.3674 1219.5 53.5V109.5C1219.5 109.633 1219.55 109.76 1219.64 109.854C1219.73 109.947 1219.85 110 1219.98 110H1277.02C1277.15 110 1277.27 109.947 1277.36 109.854C1277.45 109.76 1277.5 109.633 1277.5 109.5V64C1277.5 63.8674 1277.45 63.7402 1277.36 63.6464C1277.27 63.5527 1277.15 63.5 1277.02 63.5H1248.5C1247.65 63.5 1246.84 63.1045 1246.29 62.4206L1238.77 53H1219.98ZM1215.58 48.9038C1216.74 47.6848 1218.33 47 1219.98 47H1240.11C1240.97 47 1241.77 47.3955 1242.32 48.0794L1249.85 57.5H1277.02C1278.67 57.5 1280.26 58.1848 1281.42 59.4038C1282.59 60.6228 1283.25 62.2761 1283.25 64V109.5C1283.25 111.224 1282.59 112.877 1281.42 114.096C1280.26 115.315 1278.67 116 1277.02 116H1219.98C1218.33 116 1216.74 115.315 1215.58 114.096C1214.41 112.877 1213.75 111.224 1213.75 109.5V53.5C1213.75 51.7761 1214.41 50.1228 1215.58 48.9038Z" fill="white"/>
<path fill-rule="evenodd" clip-rule="evenodd" d="M1244.16 75.5251C1245.47 76.892 1245.47 79.108 1244.16 80.4749L1238.15 86.75L1244.16 93.0251C1245.47 94.392 1245.47 96.608 1244.16 97.9749C1242.85 99.3417 1240.73 99.3417 1239.42 97.9749L1231.03 89.2249C1229.72 87.858 1229.72 85.642 1231.03 84.2751L1239.42 75.5251C1240.73 74.1583 1242.85 74.1583 1244.16 75.5251Z" fill="white"/>
<path fill-rule="evenodd" clip-rule="evenodd" d="M1252.12 97.9749C1250.81 96.608 1250.81 94.392 1252.12 93.0251L1258.13 86.75L1252.12 80.4749C1250.81 79.108 1250.81 76.892 1252.12 75.5251C1253.43 74.1583 1255.55 74.1583 1256.86 75.5251L1265.25 84.2751C1266.56 85.642 1266.56 87.858 1265.25 89.2249L1256.86 97.9749C1255.55 99.3417 1253.43 99.3417 1252.12 97.9749Z" fill="white"/>
</svg>
